<?xml version="1.0" encoding="utf-8"?>
<!-- Svg Vector Icons : http://www.onlinewebfonts.com/icon -->
<!DOCTYPE svg PUBLIC "-//W3C//DTD SVG 1.1//EN" "http://www.w3.org/Graphics/SVG/1.1/DTD/svg11.dtd">
<svg version="1.1" xmlns="http://www.w3.org/2000/svg" xmlns:xlink="http://www.w3.org/1999/xlink" x="0px" y="0px" viewBox="0 0 256 256" enable-background="new 0 0 256 256" xml:space="preserve">
<metadata> Svg Vector Icons : http://www.onlinewebfonts.com/icon </metadata>
<g><g><g><path fill="#000000" d="M68.3,44.5c-30.4,18.9-56,34.9-56.8,35.6c-1.8,1.7-2,3.7-0.3,5.4c0.9,1,1.6,1.2,3.9,1.2h2.8v6.5c0,3.7,0.2,6.9,0.5,7.4c0.6,1.2,3.1,2.2,5.5,2.2h1.8v6.4c0,5.7,0.1,6.5,0.9,7.6c0.5,0.6,1.4,1.3,2.1,1.4l1.2,0.3v29.3V177l-1.4,0.5c-2.3,0.8-2.8,2.3-2.8,9.4v6.2h-2.5c-5.2,0-5.3,0.3-5.3,13.4v10.1h-2.3c-2.9,0-4.4,0.7-5,2.3c-0.4,0.8-0.5,5.6-0.4,14.1l0.1,12.9H128h117.8l0.1-13.3l0.1-13.3l-1.3-1.4c-1.2-1.2-1.7-1.3-3.9-1.3h-2.6v-10.1c0-13-0.1-13.4-5.3-13.4h-2.5v-6.2c0-7.1-0.5-8.6-2.8-9.4l-1.4-0.5v-29.3v-29.3l1.2-0.3c0.6-0.1,1.6-0.8,2.1-1.4c0.8-1.1,0.9-1.9,0.9-7.6v-6.4h1.8c2.4,0,4.8-1,5.5-2.2c0.3-0.6,0.5-3.7,0.5-7.4v-6.5h2.8c2.4,0,3-0.2,3.9-1.2c1.5-1.4,1.5-3.5,0.1-5c-0.6-0.6-26.2-16.7-56.9-35.7l-55.8-34.6H128h-4.3L68.3,44.5z M178.1,47.8l49.5,30.8l-49.8,0.1c-27.4,0-72.2,0-99.7,0l-49.8-0.1l49.5-30.7C105,30.9,127.6,17.1,127.9,17C128.2,17,150.8,30.9,178.1,47.8z M230.3,90.8v3.7H128H25.7v-3.7v-3.7H128h102.3V90.8z M57,106.5v3.7H45.3H33.5v-3.7v-3.7h11.8H57V106.5z M108.2,108.8c0,6.8,0.5,8.3,2.8,9.2l1.4,0.6V148c0,27.7,0,29.5-0.8,29.5c-1.1,0-2.1,0.9-2.8,2.2c-0.4,0.6-0.6,3.4-0.6,7.2v6.3L86.7,193l-21.6-0.1l-0.1-6.7c-0.1-6.1-0.2-6.7-1.1-7.7c-0.6-0.6-1.4-1.1-1.8-1.1c-0.8,0-0.8-1.2-0.8-29.5v-29.5l1.4-0.6c0.8-0.3,1.6-1,1.8-1.4c0.3-0.5,0.5-3.7,0.5-7.3v-6.5h21.7h21.7V108.8z M140,106.5v3.7h-12h-12v-3.7v-3.7h12h12V106.5z M191.1,109.3c0,3.5,0.2,6.8,0.5,7.3c0.2,0.5,1.1,1.1,1.8,1.4l1.4,0.6V148c0,28.2,0,29.5-0.8,29.5c-0.5,0-1.3,0.5-1.8,1.1c-0.9,1-1,1.6-1.1,7.7l-0.1,6.7l-21.5,0.1l-21.5,0.1l-0.1-6.6c-0.1-6.3-0.2-6.7-1.2-7.8c-0.6-0.6-1.5-1.2-2-1.2c-0.8,0-0.8-1.2-0.8-29.5v-29.4l1.4-0.6c2.3-1,2.8-2.4,2.8-9.2v-6h21.7h21.7L191.1,109.3L191.1,109.3z M222.5,106.5v3.7h-11.8H199v-3.7v-3.7h11.8h11.8V106.5z M53.3,147.7V177h-7.8h-7.8v-29.3v-29.3h7.8h7.8V147.7z M135.8,147.7V177H128h-7.8v-29.3v-29.3h7.8h7.8V147.7z M218.3,147.7V177h-7.8h-7.8v-29.3v-29.3h7.8h7.8V147.7z M57,189.2v3.9H45.3H33.5v-3.9v-3.9h11.8H57V189.2z M139.9,189l-0.1,3.8H128h-11.8l-0.1-3.8l-0.1-3.8h12h12L139.9,189z M222.5,189.2v3.9h-11.8H199v-3.9v-3.9h11.8h11.8V189.2z M230.3,208.8v7.8H128H25.7v-7.8v-7.8H128h102.3V208.8z M238.2,232.3v7.8H128H17.8v-7.8v-7.8H128h110.2V232.3z"/><path fill="#000000" d="M126.3,28.3c-1.1,0.5-1.6,1.1-2,2.5c-0.4,1.3-0.9,2-1.8,2.4c-1.7,0.7-4.4,3.7-5.4,5.9c-0.9,2.1-0.9,6.7,0,8.9c1.7,3.8,6.4,7.3,9.9,7.3c2.3,0,3.8,0.8,4.5,2.3c0.8,1.8,0.5,3.5-1,4.6c-2.4,2-5.8,0.5-6.3-2.8c-0.4-2.4-1.5-3.6-3.5-4c-1.3-0.2-1.9,0-3,0.9c-1.1,1-1.3,1.5-1.3,3.3c0,3.3,1.3,6,4,8.3c1.3,1.2,2.6,2.1,2.9,2.1c0.3,0,0.8,0.8,1.1,1.8c0.7,2.3,1.6,3,3.8,3c2.2,0,3.1-0.8,3.8-3c0.3-1,0.8-1.8,1.1-1.8c1.1,0,5.2-4.1,5.9-6.1c1.2-2.8,1.1-7-0.2-9.7c-1.8-3.8-6.4-6.8-10.4-6.8c-3.6,0-5.4-4.5-2.7-6.8c2.6-2.2,5.9-0.7,6.5,2.9c0.5,3.6,3.9,5.1,6.5,2.8c1.1-1,1.3-1.4,1.2-3.4c0-1.2-0.4-3-0.8-3.9c-0.9-2.1-3.6-5.2-5.3-5.9c-0.9-0.4-1.5-1.1-1.8-2.4c-0.5-1.4-0.9-2-2.1-2.5C127.8,27.5,128.1,27.5,126.3,28.3z"/></g></g></g>
</svg>