<?xml version="1.0" encoding="utf-8"?>
<!-- Svg Vector Icons : http://www.onlinewebfonts.com/icon -->
<!DOCTYPE svg PUBLIC "-//W3C//DTD SVG 1.1//EN" "http://www.w3.org/Graphics/SVG/1.1/DTD/svg11.dtd">
<svg version="1.1" xmlns="http://www.w3.org/2000/svg" xmlns:xlink="http://www.w3.org/1999/xlink" x="0px" y="0px" viewBox="0 0 256 256" enable-background="new 0 0 256 256" xml:space="preserve">
<metadata> Svg Vector Icons : http://www.onlinewebfonts.com/icon </metadata>
<g><g><g><path fill="#000000" d="M118.8,10.5c-27.3,3.1-51.6,19.6-64.5,43.8c-9.5,17.9-12,37.4-7.8,62c5.9,35.1,26.5,73.4,58.7,109c6.2,6.9,18.2,18.6,20.2,19.8c1.8,1.2,3.4,1.2,5.2,0c2.1-1.2,13.7-12.7,19.8-19.4c39.8-44.1,61.1-89.8,61.1-131.4c0-10.6-1.1-17.5-4.2-27.3c-5.9-18.4-19.3-35-36.6-45.4C155.6,12.7,136.4,8.5,118.8,10.5z M140.5,41c8.5,2.2,14.9,5.3,21.3,10.4c19.7,15.7,25.9,43.6,14.7,66.2c-12.5,24.9-41.5,36.3-67.6,26.5c-16.5-6.2-29.1-20.5-33.4-37.8c-1.4-5.5-1.7-16.2-0.7-21.8c4.1-21.9,20.1-38.8,41.4-43.5c6.1-1.3,6.4-1.4,13.6-1.2C134.6,39.9,137.1,40.1,140.5,41z"/><path fill="#000000" d="M124.7,60.7c-1.4,1.3-1.5,1.5-1.7,5.1c-0.2,3.5-0.3,3.7-1.2,3.7c-1.8,0-6.4,1.4-9.4,2.8c-5.6,2.6-8.9,6.9-8.9,11.6c0,6.1,4.7,10.5,14,12.9c1.8,0.5,3.7,0.9,4.3,0.9c1,0,1,0.1,1,5.1v5.2l-1.9-0.3c-1.1-0.2-3.1-0.9-4.5-1.6c-2.1-1.1-2.7-1.7-3.6-3.5c-1.8-3.8-5.7-4.6-8.2-1.6c-2.3,2.7-1.1,7.5,2.7,10.8c2.7,2.3,7.7,4.7,11.9,5.6l3.6,0.7v2.7c0,1.5,0.3,3.4,0.6,4.3c0.7,1.6,2.7,3,4.4,3c1.7,0,3.7-1.4,4.4-3c0.4-0.9,0.6-2.8,0.6-4.3V118l3.6-0.7c9.7-2.1,15.8-7.5,15.8-14.1c0-6.3-5.1-10.7-15.2-13l-4.2-1v-5v-5l1.3,0.3c4.5,1,7.7,2.8,8.6,5c2.2,5.3,9.5,4.3,9.5-1.2c0-5.6-5.8-10.8-14.5-13c-1.5-0.4-3.2-0.7-3.7-0.7c-0.9,0-1-0.3-1.2-3.7c-0.1-3.5-0.2-3.8-1.7-5.1c-1.1-1-1.9-1.3-3.3-1.3C126.6,59.3,125.8,59.6,124.7,60.7z M123,83.5v4.4l-1.2-0.3c-3.3-0.7-7-2.2-7.7-2.9c-0.8-0.9-0.8-1,0-1.8c1.2-1.3,6.3-3.5,8.7-3.7C122.8,79.1,123,81.1,123,83.5z M137.4,100.3c1.7,0.6,3.6,1.4,4.3,2c1.1,0.9,1.2,1.2,0.6,1.8c-0.9,1-5.1,2.9-7.4,3.3l-1.9,0.3v-4.2C133.1,98.8,132.9,99,137.4,100.3z"/></g></g></g>
</svg>