<?xml version="1.0" encoding="utf-8"?>
<!-- Svg Vector Icons : http://www.onlinewebfonts.com/icon -->
<!DOCTYPE svg PUBLIC "-//W3C//DTD SVG 1.1//EN" "http://www.w3.org/Graphics/SVG/1.1/DTD/svg11.dtd">
<svg version="1.1" xmlns="http://www.w3.org/2000/svg" xmlns:xlink="http://www.w3.org/1999/xlink" x="0px" y="0px" viewBox="0 0 256 256" enable-background="new 0 0 256 256" xml:space="preserve">
<metadata> Svg Vector Icons : http://www.onlinewebfonts.com/icon </metadata>
<g><g><g><path fill="#000000" d="M206.8,15.2v5.2l-2.8,0.8C198.7,22.9,192.5,28,190,33c-2.6,5.1-3.4,11.8-2.1,17.1c1.5,6.2,6.4,12.7,11.8,15.5c4.7,2.5,7.1,3,15.6,3.2c8.5,0.2,9.4,0.5,10.6,2.9c1,1.9,0.6,4.1-1.2,5.8l-1.4,1.3L205.2,79L187,79.2v9.6v9.7h9.9h9.9v4.8v4.8h9.7h9.6l0.1-5.1l0.1-5.1l2.8-1c10.3-3.7,16.5-12.6,16.4-23.3c0-10.2-6.4-19.1-16.2-22.7c-2.1-0.8-4.1-1-11.2-1.2l-8.6-0.3l-1.4-1.3c-1.8-1.7-2.2-3.8-1.2-5.7c1.5-3,1-2.9,20.9-2.9H246v-9.7v-9.7h-9.9h-9.9v-5.1V10h-9.7h-9.7V15.2z"/><path fill="#000000" d="M120.8,25.2C97,26.8,74.3,37,57,53.7c-9.3,9-15.7,17.8-21.1,28.8l-3,6.3l-8.7,0.1L15.4,89l14.1,18.9c7.8,10.4,14.3,19.1,14.5,19.3c0.2,0.2,6.9-8.3,14.9-19l14.6-19.4l-9.7-0.1l-9.7-0.1l2.6-4.1c7.1-11.4,14.7-19.2,25.4-26.3C94,50.2,106.9,45.8,122,44.5c13.1-1.2,28.4,1.6,40.6,7.2c2.4,1.1,4.4,2,4.5,2c0.1,0,0.2-4.7,0.2-10.6V32.6l-2.4-0.9c-5.3-2-11.9-3.8-17.4-4.9c-5.1-1-17.1-2.2-20.3-2C126.4,24.8,123.6,25,120.8,25.2z"/><path fill="#000000" d="M121.3,79.4c-0.5,0.1-1.4,0.3-1.9,0.5l-1.1,0.2v14.1v14.1h9.7h9.7v-14c0-12.9,0-14-0.8-14.3C135.9,79.4,122.7,79.1,121.3,79.4z"/><path fill="#000000" d="M104.4,85.2c-7.6,4-15.1,11.5-19.2,19.3l-2,3.7h12.4h12.5V95.7c0-6.9,0-12.4-0.1-12.4C108,83.3,106.4,84.2,104.4,85.2z"/><path fill="#000000" d="M147.8,95.7v12.4h12.5h12.5l-1.8-3.5c-4.7-8.8-12-15.9-20.7-20.2l-2.4-1.2V95.7L147.8,95.7z"/><path fill="#000000" d="M79.7,119.6c-0.2,0.7-0.4,4.5-0.4,8.4s0.1,7.7,0.4,8.4l0.3,1.3h14.1h14.1V128v-9.7H94.1H80.1L79.7,119.6z"/><path fill="#000000" d="M118.3,128v9.7h9.7h9.7V128v-9.7H128h-9.7V128z"/><path fill="#000000" d="M147.8,128v9.7h14.1h14.1l0.3-1.3c0.2-0.7,0.4-4.5,0.4-8.4s-0.1-7.7-0.4-8.4l-0.3-1.2h-14.1h-14.1V128z"/><path fill="#000000" d="M197,147.8l-14.6,19.4h9.7h9.7l-1.3,2.2c-18.3,31.7-53.8,47.8-89.3,40.7c-5.7-1.2-13-3.5-18.2-5.9c-2.2-1-4-1.8-4.1-1.8c-0.1,0-0.2,4.7-0.2,10.6v10.6l2.4,0.9c12.3,4.6,23.9,6.7,37,6.7c15.1,0,28.3-2.9,42.2-9.1c11.2-5,20.6-11.6,30-21c9.1-9,15.6-18.3,20.7-29.2l2.1-4.4l8.7-0.1l8.7-0.1l-14.3-19.1c-7.9-10.5-14.4-19.2-14.5-19.3C211.6,128.5,204.9,137.1,197,147.8z"/><path fill="#000000" d="M29.8,153.1c0,5.3,0,5.3-1.1,5.3c-0.6,0-2.8,0.8-4.8,1.8c-15,7.5-18.3,26.8-6.6,38.9c1.2,1.2,3.3,2.9,4.7,3.8c4.6,2.7,6.3,3.1,15.8,3.4l8.6,0.3l1.4,1.3c1.8,1.7,2.2,3.8,1.2,5.7c-1.5,3-1,2.9-20.9,2.9H10v9.7v9.7h9.9h9.9v5.1v5.1h9.7h9.7v-5.3v-5.3l1.5-0.3c4.8-1,11.1-5.6,14.2-10.6c7.5-11.6,3.3-27.9-8.9-34.3c-4.5-2.4-6.8-2.9-15.4-3.1c-4.3-0.1-8.2-0.5-8.7-0.7c-1.1-0.6-2.6-3.1-2.6-4.2c0-1.7,1.5-3.9,3-4.7c1.3-0.6,4.1-0.7,19.1-0.7H69v-9.7v-9.7h-9.9h-9.9v-4.8v-4.8h-9.7h-9.7V153.1z"/><path fill="#000000" d="M84.5,150.2c4.4,8.8,12.4,16.9,21.3,21.3l2.4,1.2v-12.4v-12.4H95.7H83.3L84.5,150.2z"/><path fill="#000000" d="M118.3,161.9v14.1l1.3,0.3c0.7,0.2,4.5,0.4,8.4,0.4s7.7-0.1,8.4-0.4l1.2-0.3v-14.1v-14.1H128h-9.7V161.9z"/><path fill="#000000" d="M147.8,160.3v12.4l2.4-1.2c8.9-4.5,16.8-12.4,21.3-21.3l1.2-2.4h-12.4h-12.4V160.3z"/></g></g></g>
</svg>