<?xml version="1.0" encoding="utf-8"?>
<!-- Svg Vector Icons : http://www.onlinewebfonts.com/icon -->
<!DOCTYPE svg PUBLIC "-//W3C//DTD SVG 1.1//EN" "http://www.w3.org/Graphics/SVG/1.1/DTD/svg11.dtd">
<svg version="1.1" xmlns="http://www.w3.org/2000/svg" xmlns:xlink="http://www.w3.org/1999/xlink" x="0px" y="0px" viewBox="0 0 256 256" enable-background="new 0 0 256 256" xml:space="preserve">
<metadata> Svg Vector Icons : http://www.onlinewebfonts.com/icon </metadata>
<g><g><path fill="#000000" d="M188.1,130.2c-32,0-57.9,25.9-57.9,57.9c0,32,25.9,57.9,57.9,57.9s57.9-25.9,57.9-57.9C246,156.1,220.1,130.2,188.1,130.2z M190.1,210v-11.5h-32.4v-21.4h32.4v-11.5l29.4,22.1L190.1,210z M119,188.1c0-13.4,3.9-25.8,10.5-36.4c-0.2-2,0.1-4.3,1.5-7.3c7.4-9.9,11.8-21.1,12.2-24.8c0,0,11.3-8.9,12-22.3c0.7-13.4-2.5-14-2.5-14c4.8-14.5,6.3-69.3-28.8-62.7C118.1,9.1,81.4,0.1,64.3,30.7c-8.5,15.2-11.7,36.1-5.1,53c-0.2,1.3-2.4-1.2-3.1,6.6c-0.7,7.6,2.6,18.4,6.4,23.4c1.6,2.1,4.2,3.7,6,4.5c0,0,2.2,13.5,12.7,26.2c2.4,10.1-7.6,15.4-7.6,15.4C40.5,166.2,10,184.6,10,204.5c0,1.5,0,15.4,0,15.4c0,21.6,50.3,26.2,95.6,26.2c13.7,0,27.7-1.2,40.7-3.2C129.8,230.3,119,210.5,119,188.1z"/></g></g>
</svg>